<svg width="66" height="66" viewBox="0 0 66 66" fill="none" xmlns="http://www.w3.org/2000/svg">
<path d="M49.6806 20.0066C51.0707 18.1952 51.8578 16.1301 51.8578 13.9384C51.8578 6.7602 43.415 0.941162 33.0002 0.941162C22.5854 0.941162 14.1426 6.7602 14.1426 13.9384C14.1426 16.1301 14.9297 18.1952 16.3198 20.0066C14.9297 21.818 14.1426 23.8831 14.1426 26.0749C14.1426 28.6219 15.2055 30.9978 17.0424 33.0033C15.2055 35.0088 14.1426 37.3847 14.1426 39.9317C14.1426 42.122 14.9287 44.1858 16.317 45.9963C14.9287 47.8068 14.1426 49.8706 14.1426 52.061C14.1426 59.2391 22.5854 65.0582 33.0002 65.0582C43.415 65.0582 51.8578 59.2391 51.8578 52.061C51.8578 49.8706 51.0717 47.8068 49.6834 45.9963C51.0717 44.1858 51.8578 42.122 51.8578 39.9317C51.8578 37.3847 50.7949 35.0088 48.958 33.0033C50.7949 30.9978 51.8578 28.6219 51.8578 26.0749C51.8578 23.8831 51.0707 21.818 49.6806 20.0066Z" fill="white"/>
<path d="M51.8578 13.9384C51.8578 21.1165 43.415 26.9356 33.0002 26.9356C22.5854 26.9356 14.1426 21.1165 14.1426 13.9384C14.1426 6.7602 22.5854 0.941162 33.0002 0.941162C43.415 0.941162 51.8578 6.7602 51.8578 13.9384Z" fill="white"/>
<path d="M51.8578 26.0782C51.8578 33.2564 43.415 39.0754 33.0002 39.0754C22.5854 39.0754 14.1426 33.2564 14.1426 26.0782C14.1426 18.9 22.5854 13.081 33.0002 13.081C43.415 13.081 51.8578 18.9 51.8578 26.0782Z" fill="white"/>
<path d="M51.8578 39.9344C51.8578 47.1126 43.415 52.9316 33.0002 52.9316C22.5854 52.9316 14.1426 47.1126 14.1426 39.9344C14.1426 32.7563 22.5854 26.9372 33.0002 26.9372C43.415 26.9372 51.8578 32.7563 51.8578 39.9344Z" fill="white"/>
<path d="M51.8578 52.0595C51.8578 59.2377 43.415 65.0567 33.0002 65.0567C22.5854 65.0567 14.1426 59.2377 14.1426 52.0595C14.1426 44.8814 22.5854 39.0623 33.0002 39.0623C43.415 39.0623 51.8578 44.8814 51.8578 52.0595Z" fill="white"/>
<g opacity="0.68">
<path fill-rule="evenodd" clip-rule="evenodd" d="M49.6812 19.9815C51.0721 18.1698 51.8598 16.1041 51.8598 13.9116C51.8598 6.73347 43.4169 0.914429 33.0022 0.914429C22.5874 0.914429 14.1445 6.73347 14.1445 13.9116C14.1445 16.1041 14.9322 18.1698 16.3231 19.9815C14.9322 21.7933 14.1445 23.859 14.1445 26.0515C14.1445 28.5983 15.2074 30.9741 17.0441 32.9796C15.2074 34.985 14.1445 37.3608 14.1445 39.9077C14.1445 42.0972 14.93 44.1602 16.3174 45.9702C14.93 47.7803 14.1445 49.8433 14.1445 52.0328C14.1445 59.2109 22.5874 65.03 33.0022 65.03C43.4169 65.03 51.8598 59.2109 51.8598 52.0328C51.8598 49.8433 51.0743 47.7803 49.6869 45.9702C51.0743 44.1602 51.8598 42.0972 51.8598 39.9077C51.8598 37.3608 50.7969 34.985 48.9602 32.9796C50.7969 30.9741 51.8598 28.5983 51.8598 26.0515C51.8598 23.859 51.0721 21.7933 49.6812 19.9815Z" fill="white"/>
<path opacity="0.8" d="M51.8598 13.9116C51.8598 21.0898 43.4169 26.9088 33.0022 26.9088C22.5874 26.9088 14.1445 21.0898 14.1445 13.9116C14.1445 6.73347 22.5874 0.914429 33.0022 0.914429C43.4169 0.914429 51.8598 6.73347 51.8598 13.9116Z" fill="#F1684C"/>
<path opacity="0.8" d="M51.8598 26.0479C51.8598 33.2261 43.4169 39.0451 33.0022 39.0451C22.5874 39.0451 14.1445 33.2261 14.1445 26.0479C14.1445 18.8698 22.5874 13.0507 33.0022 13.0507C43.4169 13.0507 51.8598 18.8698 51.8598 26.0479Z" fill="#6878CA"/>
<path opacity="0.8" d="M51.8598 39.913C51.8598 47.0911 43.4169 52.9102 33.0022 52.9102C22.5874 52.9102 14.1445 47.0911 14.1445 39.913C14.1445 32.7348 22.5874 26.9158 33.0022 26.9158C43.4169 26.9158 51.8598 32.7348 51.8598 39.913Z" fill="#EFB351"/>
<path opacity="0.8" d="M51.8598 52.0422C51.8598 59.2204 43.4169 65.0394 33.0022 65.0394C22.5874 65.0394 14.1445 59.2204 14.1445 52.0422C14.1445 44.8641 22.5874 39.045 33.0022 39.045C43.4169 39.045 51.8598 44.8641 51.8598 52.0422Z" fill="#54BF94"/>
</g>
<path fill-rule="evenodd" clip-rule="evenodd" d="M33.0015 60.0028C47.9139 60.0028 60.0028 47.9139 60.0028 33.0015C60.0028 18.0891 47.9139 6.00028 33.0015 6.00028C18.0891 6.00028 6.00028 18.0891 6.00028 33.0015C6.00028 47.9139 18.0891 60.0028 33.0015 60.0028ZM33.0015 66.003C51.2277 66.003 66.003 51.2277 66.003 33.0015C66.003 14.7753 51.2277 0 33.0015 0C14.7753 0 0 14.7753 0 33.0015C0 51.2277 14.7753 66.003 33.0015 66.003Z" fill="white"/>
</svg>
