<svg width="179" height="160" viewBox="0 0 179 160" fill="none" xmlns="http://www.w3.org/2000/svg">
<path opacity="0.75" d="M109 80.5C109 110.6 84.5995 135 54.5 135C24.4005 135 0 110.6 0 80.5C0 50.4005 24.4005 26 54.5 26C84.5995 26 109 50.4005 109 80.5Z" fill="#EAA698"/>
<path opacity="0.75" d="M131 80.5C131 110.6 106.6 135 76.5 135C46.4005 135 22 110.6 22 80.5C22 50.4005 46.4005 26 76.5 26C106.6 26 131 50.4005 131 80.5Z" fill="#A6AED7"/>
<path opacity="0.75" d="M157 80.5C157 110.6 132.6 135 102.5 135C72.4005 135 48 110.6 48 80.5C48 50.4005 72.4005 26 102.5 26C132.6 26 157 50.4005 157 80.5Z" fill="#EACC9A"/>
<path opacity="0.75" d="M179 80.5C179 110.6 154.6 135 124.5 135C94.4005 135 70 110.6 70 80.5C70 50.4005 94.4005 26 124.5 26C154.6 26 179 50.4005 179 80.5Z" fill="#9CD1BC"/>
<path fill-rule="evenodd" clip-rule="evenodd" d="M89 12C51.4446 12 21 42.4446 21 80C21 117.555 51.4446 148 89 148C126.555 148 157 117.555 157 80C157 42.4446 126.555 12 89 12ZM9 80C9 35.8172 44.8172 0 89 0C133.183 0 169 35.8172 169 80C169 124.183 133.183 160 89 160C44.8172 160 9 124.183 9 80Z" fill="white"/>
</svg>
