<svg width="83" height="66" viewBox="0 0 83 66" fill="none" xmlns="http://www.w3.org/2000/svg">
<path d="M18.5213 32.9667C18.5213 38.0812 14.3751 42.2273 9.26063 42.2273C4.14613 42.2273 0 38.0812 0 32.9667C0 27.8522 4.14613 23.7061 9.26063 23.7061C14.3751 23.7061 18.5213 27.8522 18.5213 32.9667Z" fill="#EAA698"/>
<path d="M40.0056 32.9667C40.0056 38.0812 35.8595 42.2273 30.745 42.2273C25.6305 42.2273 21.4844 38.0812 21.4844 32.9667C21.4844 27.8522 25.6305 23.7061 30.745 23.7061C35.8595 23.7061 40.0056 27.8522 40.0056 32.9667Z" fill="#A6AED7"/>
<path d="M61.492 32.9667C61.492 38.0812 57.3458 42.2273 52.2313 42.2273C47.1168 42.2273 42.9707 38.0812 42.9707 32.9667C42.9707 27.8522 47.1168 23.7061 52.2313 23.7061C57.3458 23.7061 61.492 27.8522 61.492 32.9667Z" fill="#EACC9A"/>
<path d="M82.9744 32.9667C82.9744 38.0812 78.8283 42.2273 73.7138 42.2273C68.5993 42.2273 64.4531 38.0812 64.4531 32.9667C64.4531 27.8522 68.5993 23.7061 73.7138 23.7061C78.8283 23.7061 82.9744 27.8522 82.9744 32.9667Z" fill="#9CD1BC"/>
<path fill-rule="evenodd" clip-rule="evenodd" d="M41.15 60.0028C56.0623 60.0028 68.1512 47.9139 68.1512 33.0015C68.1512 18.0891 56.0623 6.00028 41.15 6.00028C26.2376 6.00028 14.1487 18.0891 14.1487 33.0015C14.1487 47.9139 26.2376 60.0028 41.15 60.0028ZM41.15 66.003C59.3762 66.003 74.1515 51.2278 74.1515 33.0015C74.1515 14.7753 59.3762 0 41.15 0C22.9237 0 8.14844 14.7753 8.14844 33.0015C8.14844 51.2278 22.9237 66.003 41.15 66.003Z" fill="white"/>
</svg>
