<svg width="66" height="66" viewBox="0 0 66 66" fill="none" xmlns="http://www.w3.org/2000/svg">
<path d="M18.0187 66.0054C8.38266 66.0054 0.464843 58.1938 0.464843 48.5578C0.464843 38.9218 8.38266 31.1103 18.0187 31.1103C27.6547 31.1103 35.5725 38.9218 35.5725 48.5578C35.5725 58.1938 27.6547 66.0054 18.0187 66.0054Z" fill="#F6F6F6"/>
<path d="M48.4445 66.0054C38.7497 66.0054 30.8906 58.1463 30.8906 48.4515C30.8906 38.7568 38.7497 30.8977 48.4445 30.8977C58.1392 30.8977 65.9983 38.7568 65.9983 48.4515C65.9983 58.1463 58.1392 66.0054 48.4445 66.0054Z" fill="#F6F6F6"/>
<path d="M18.0187 35.5845C8.32396 35.5845 0.464843 27.7254 0.464843 18.0306C0.464843 8.33592 8.32396 0.476799 18.0187 0.476798C27.7134 0.476798 35.5725 8.33592 35.5725 18.0306C35.5725 27.7254 27.7134 35.5845 18.0187 35.5845Z" fill="white"/>
<path d="M48.4445 35.5845C38.7497 35.5845 30.8906 27.7254 30.8906 18.0306C30.8906 8.33592 38.7497 0.476799 48.4445 0.476798C58.1392 0.476798 65.9983 8.33592 65.9983 18.0306C65.9983 27.7254 58.1392 35.5845 48.4445 35.5845Z" fill="#F6F6F6"/>
<path d="M18.0226 66.0005C8.38657 66.0005 0.46875 58.189 0.468749 48.5529C0.468749 38.9169 8.38657 31.1054 18.0226 31.1054C27.6586 31.1054 35.5764 38.9169 35.5764 48.5529C35.5764 58.189 27.6586 66.0005 18.0226 66.0005Z" fill="#EFB351" fill-opacity="0.5"/>
<path d="M48.4503 66.0005C38.7556 66.0005 30.8965 58.1414 30.8965 48.4467C30.8965 38.7519 38.7556 30.8928 48.4503 30.8928C58.145 30.8928 66.0042 38.7519 66.0042 48.4466C66.0042 58.1414 58.145 66.0005 48.4503 66.0005Z" fill="#54BF94" fill-opacity="0.5"/>
<path d="M18.0226 35.5796C8.32787 35.5796 0.46875 27.7205 0.468749 18.0258C0.468749 8.33104 8.32787 0.471916 18.0226 0.471915C27.7173 0.471915 35.5764 8.33103 35.5764 18.0258C35.5764 27.7205 27.7173 35.5796 18.0226 35.5796Z" fill="#F1684C" fill-opacity="0.5"/>
<path d="M48.4503 35.5796C38.7556 35.5796 30.8965 27.7205 30.8965 18.0258C30.8965 8.33104 38.7556 0.471916 48.4503 0.471915C58.145 0.471915 66.0042 8.33103 66.0042 18.0258C66.0042 27.7205 58.145 35.5796 48.4503 35.5796Z" fill="#6878CA" fill-opacity="0.5"/>
<path fill-rule="evenodd" clip-rule="evenodd" d="M33.0012 60.0021C47.9134 60.0021 60.0022 47.9134 60.0022 33.0012C60.0022 18.089 47.9134 6.00028 33.0012 6.00028C18.089 6.00028 6.00028 18.089 6.00028 33.0012C6.00028 47.9134 18.089 60.0021 33.0012 60.0021ZM33.0012 66.0024C51.2273 66.0024 66.0024 51.2273 66.0024 33.0012C66.0024 14.7751 51.2273 0 33.0012 0C14.7751 0 0 14.7751 0 33.0012C0 51.2273 14.7751 66.0024 33.0012 66.0024Z" fill="white"/>
</svg>
